<svg width="16" height="8" viewBox="0 0 16 8" fill="none" xmlns="http://www.w3.org/2000/svg">
<path d="M14.993 3.73492L10.9625 0.374918C10.878 0.30447 10.7633 0.264893 10.6437 0.264893C10.5242 0.264893 10.4095 0.30447 10.325 0.374918C10.2405 0.445366 10.193 0.540914 10.193 0.640543C10.193 0.740172 10.2405 0.83572 10.325 0.906168L13.589 3.62492H0.575C0.455653 3.62492 0.341193 3.66443 0.256802 3.73475C0.172411 3.80508 0.125 3.90046 0.125 3.99992C0.125 4.09937 0.172411 4.19476 0.256802 4.26508C0.341193 4.33541 0.455653 4.37492 0.575 4.37492H13.589L10.325 7.09367C10.2405 7.16412 10.193 7.25966 10.193 7.35929C10.193 7.45892 10.2405 7.55447 10.325 7.62492C10.4095 7.69537 10.5242 7.73494 10.6437 7.73494C10.7633 7.73494 10.878 7.69537 10.9625 7.62492L14.993 4.26492C15.0773 4.19461 15.1246 4.09929 15.1246 3.99992C15.1246 3.90054 15.0773 3.80523 14.993 3.73492Z" fill="white"/>
</svg>
