<svg width="33" height="40" viewBox="0 0 33 40" fill="none" xmlns="http://www.w3.org/2000/svg">
<path fill-rule="evenodd" clip-rule="evenodd" d="M32.3755 20C32.3755 30.7005 23.7011 39.375 13.0005 39.375C8.35351 39.375 4.08859 37.739 0.75032 35.0115C0.559832 35.126 0.366988 35.2369 0.171875 35.3442C3.64435 38.2505 8.11813 40 13.0005 40C24.0462 40 33.0005 31.0457 33.0005 20C33.0005 8.95431 24.0462 0 13.0005 0C8.11813 0 3.64435 1.74949 0.171875 4.65578C0.366988 4.76309 0.559832 4.87402 0.750319 4.98847C4.08859 2.261 8.35351 0.625 13.0005 0.625C23.7011 0.625 32.3755 9.29948 32.3755 20Z" fill="white"/>
</svg>
